<svg width="70" height="20" viewBox="0 0 70 20" fill="none" xmlns="http://www.w3.org/2000/svg">
<path fill-rule="evenodd" clip-rule="evenodd" d="M8.0736 1C8.0482 1 8.02285 1.00013 7.99756 1.00039V4.94074C8.02277 4.9403 8.04811 4.94008 8.0736 4.94008C10.1062 4.94008 11.1299 6.59713 11.1299 8.10688V18.5573H15.4382V7.62817C15.4382 4.20362 12.8606 1 8.0736 1ZM7.92421 1.00034C7.94855 1.00034 7.97285 1.00046 7.99709 1.0007V4.94102C7.97293 4.94062 7.94863 4.94042 7.92421 4.94042C5.89157 4.94042 4.86788 6.59747 4.86788 8.10722V18.5577H0.55957V7.62852C0.55957 4.20396 3.13719 1.00034 7.92421 1.00034Z" fill="white"/>
<path fill-rule="evenodd" clip-rule="evenodd" d="M26.0723 19C26.0462 19 26.0202 18.9999 25.9942 18.9996V15.0592C26.0201 15.0597 26.0461 15.0599 26.0723 15.0599C28.1049 15.0599 29.1286 13.4029 29.1286 11.8931V1.44266H33.4369V12.3718C33.4369 15.7964 30.8593 19 26.0723 19ZM25.9232 18.9984C25.9468 18.9984 25.9703 18.9983 25.9938 18.9981V15.0578C25.9704 15.0581 25.9469 15.0583 25.9232 15.0583C23.8906 15.0583 22.8669 13.4013 22.8669 11.8915V1.44106H18.5586V12.3702C18.5586 15.7948 21.1362 18.9984 25.9232 18.9984Z" fill="white"/>
<path fill-rule="evenodd" clip-rule="evenodd" d="M44.071 19C44.0468 19 44.0226 18.9999 43.9985 18.9996V18.9981C43.9751 18.9983 43.9516 18.9984 43.9281 18.9984C39.1411 18.9984 36.5635 15.7948 36.5635 12.3703V1.44109H40.8718V11.8916C40.8718 13.4013 41.8955 15.0584 43.9281 15.0584C43.9517 15.0584 43.9752 15.0582 43.9986 15.0578V15.0593C44.0226 15.0597 44.0468 15.0599 44.071 15.0599C46.1037 15.0599 47.1274 13.4029 47.1274 11.8931V1.44266H51.4357V12.3718C51.4357 15.7964 48.858 19 44.071 19Z" fill="white"/>
<path fill-rule="evenodd" clip-rule="evenodd" d="M62.0054 1.00041C61.9795 1.00014 61.9536 1 61.9276 1C57.1406 1 54.563 4.20362 54.563 7.62817V18.5573H58.8713V14.1831H65.132V18.5576H69.4403V7.62845C69.4403 4.20389 66.8627 1.00027 62.0757 1.00027C62.0522 1.00027 62.0288 1.00039 62.0054 1.00061V1.00041ZM65.132 10.9426V8.10715C65.132 6.5974 64.1083 4.94036 62.0757 4.94036C62.0519 4.94036 62.0283 4.94055 62.0048 4.94093V4.94076C61.9792 4.94031 61.9535 4.94008 61.9276 4.94008C59.895 4.94008 58.8713 6.59713 58.8713 8.10688V10.9426H65.132Z" fill="white"/>
</svg>
